PathFileType	4	(X/Y/Z)	/home/abdul/Desktop/myosuite/custom_workspace/IK/output/S19_12_3.trc
DataRate	CameraRate	NumFrames	NumMarkers	Units	OrigDataRate	OrigDataStartFrame	OrigNumFrames
200.0	200.0	64	3	mm	200.0	1	1483
Frame#	Time	V_Shoulder			V_Elbow			V_Wrist		
		X1	Y1	Z1	X2	Y2	Z2	X3	Y3	Z3

1	0.0	-106.84640840540219	696.5249583762153	322.47810803738884				-200.8387165261649	315.9855159551606	30.60027987075428
2	0.005	-106.85577381025303	696.4359225899399	322.44169250225644				-200.88244491291417	316.0395441117861	30.607342848243558
3	0.01	-106.86568675911487	696.3448197697677	322.4042266409696				-200.9251772522931	316.0974618703393	30.614374543096204
4	0.015	-106.87616278225299	696.2516843986285	322.36571502670483				-200.96661218476646	316.15928418260205	30.621393337455583
5	0.02	-106.88721709192112	696.1565524123477	322.32616319815423				-201.00643314725676	316.2250128868218	30.628420776951614
6	0.025	-106.89886453469772	696.0594610264602	322.2855776419094				-201.04430856897966	316.29463606231843	30.63548171120369
7	0.03	-106.91111954282316	695.9604485600335	322.24396577442684				-201.07989212069904	316.36812740368475	30.642604429417432
8	0.035	-106.92399608467144	695.8595542572456	322.20133592371786				-201.11282301829806	316.44544561768606	30.64982079038625
9	0.04	-106.93750761449651	695.756818107457	322.15769731089756				-201.14272638135492	316.52653384596886	30.657166346201564
10	0.045	-106.95166702159908	695.6522806644903	322.1130600317103				-201.16921364719622	316.6113191166752	30.66468045896995
11	0.05	-106.96648657906418	695.5459828658186	322.0674350381424				-201.19188304067075	316.69971182803175	30.67240640983231
12	0.055	-106.98197789222301	695.437965852335	322.0208341202156				-201.21032009964992	316.7916052669376	30.680391499578114
13	0.06	-106.99815184699598	695.3282707893617	321.9732698880469				-201.22409825601113	316.8868751655124	30.688687140149177
14	0.065	-107.01501855827529	695.2169386895212	321.9247557542433				-201.23277947160855	316.985379298493	30.697348936330517
15	0.07	-107.03258731850612	695.104010238079	321.8753059166948				-201.23591492847135	317.0869571242721	30.70643675693244
16	0.075	-107.05086654662705	694.989525621329	321.82493534180867				-201.23304577220483	317.1914294722667	30.716014794776946
17	0.08	-107.06986373752846	694.8735243585694	321.77365974822266				-201.22370390729947	317.2985982791812	30.726151614814366
18	0.085	-107.08958541218887	694.7560451381923	321.72149559102087				-201.20741284278046	317.40824637659574	30.736920189711796
19	0.09	-107.11003706864575	694.6371256583735	321.668460046464				-201.18368858635955	317.5201373321577	30.748397922274243
20	0.095	-107.13122313395688	694.5168024728233	321.6145709972374				-201.15204058497784	317.634015346492	30.760666654082236
21	0.1	-107.15314691730504	694.3951108420302	321.5598470182063				-201.11197270936174	317.7496052077706	30.773812659756153
22	0.105	-107.17581056439629	694.2720845903968	321.50430736266264				-201.0629842799512	317.8666123056883	30.787926626287906
23	0.11	-107.19921501329844	694.1477559696349	321.4479719490329				-201.00457113130142	317.9847227063965	30.80310361691442
24	0.115	-107.22335995186324	694.022155528762	321.39086134801187				-200.93622671181333	318.10360328973076	30.819443019045046
25	0.12	-107.24824377687086	693.8953119910079	321.3329967700771				-200.85744321540867	318.22290194984856	30.837048475796223
26	0.125	-107.27386355503141	693.7672521379078	321.27440005333136				-200.76771274154243	318.3422478601617	30.856027800731734
27	0.13	-107.30021498597377	693.6380007008333	321.2150936516136				-200.6665284797316	318.46125180320684	30.876492875454883
28	0.135	-107.3272923673461	693.5075802601809	321.1551006228123				-200.55338591458678	318.57950656585297	30.898559529750642
29	0.14	-107.35508856214791	693.3760111524078	321.09444461730965				-200.42778404715273	318.6965873999883	30.92234740403027
30	0.145	-107.3835949684078	693.243311385077	321.03314986648064				-200.28922662820764	318.8120525485715	30.947979793888564
31	0.15	-107.41280149131516	693.1094965600479	320.97124117116476				-200.13722339903168	318.92544383666797	30.975583476643642
32	0.155	-107.44269651790847	692.9745798049184	320.9087438900278				-199.97129133504097	319.0362873268261	31.005288519791968
33	0.16	-107.47326689441589	692.8385717127986	320.84568392772525				-199.79095588759068	319.1440940378797	31.037228071375303
34	0.165	-107.50449790633917	692.7014802904713	320.7820877227789				-199.59575221918442	319.24836072599356	31.071538132322765
35	0.17	-107.53637326136362	692.5633109149682	320.71798223507545				-199.38522642728506	319.3485707265017	31.108357310898377
36	0.175	-107.56887507517199	692.4240662985682	320.65339493289656				-199.1589367519075	319.44419485482183	31.147826559453215
37	0.18	-107.60198386023244	692.283746462197	320.58835377938925				-198.91645476218702	319.5346923644658	31.190088893750186
38	0.185	-107.63567851762444	692.1423487171878	320.52288721838676				-198.65736651715565	319.61951195990923	31.235289095199033
39	0.19	-107.66993633195973	691.9998676553429	320.4570241594908				-198.38127369602745	319.69809286183147	31.283573396408464
40	0.195	-107.70473296944817	691.8562951472068	320.3907939623303				-198.08779469338918	319.76986592199376	31.335089150531054
41	0.2	-107.74004247915154	691.7116203484497	320.32422641991207				-197.77656567481563	319.8342547847877	31.38998448494465
42	0.205	-107.77583729746146	691.5658297142387	320.2573517409848				-197.44724158857872	319.8906770922616	31.448407939881
43	0.21	-107.81208825583042	691.4189070214502	320.19020053134074				-197.09949712929682	319.9385457292207	31.51050809267742
44	0.215	-107.84876459177705	691.270833398571	320.12280377398423				-196.7330276495718	319.9772701047956	31.576433168391304
45	0.22	-107.88583396318114	691.1215873631048	320.0551928081024				-196.34755001588695	320.0062574666881	31.64633063757836
46	0.225	-107.92326246587503	690.9711448662989	319.98739930677937				-195.94280340528965	320.02491424413427	31.720346802094944
47	0.23	-107.96101465453194	690.8194793449802	319.9194552534012				-195.5185500396501	320.0326474154672	31.79862636984138
48	0.235	-107.99905356684435	690.6665617802843	319.85139291670595				-195.07457585458064	320.02886589602974	31.881312019416974
49	0.24	-108.0373407509781	690.5123607630412	319.7832448244415				-194.61069110040472	320.01298194206584	31.968543955708654
50	0.245	-108.07583629628101	690.3568425655781	319.71504373560134				-194.12673087289068	319.98441256612	32.0604594574829
51	0.25	-108.11449886721788	690.1999712196772	319.64682261121504				-193.622555571799	319.9425809593972	32.15719241809555
52	0.255	-108.15328574049619	690.0417086004286	319.57861458368274				-193.09805128564395	319.8869179164742	32.25887288047583
53	0.26	-108.19215284533995	689.8820145156984	319.51045292464613				-192.55313010142237	319.8168632577148	32.36562656757944
54	0.265	-108.23105480686233	689.7208468009343	319.4423710114044				-191.9877303384298	319.7318672447267	32.47757440954077
55	0.27	-108.26994499248087	689.5581614190123	319.37440229188564				-191.4018167056485	319.63139198419833	32.59483206878667
56	0.275	-108.30877556131173	689.3939125648335	319.3065802481994				-190.79538038256248	319.51491281548164	32.71750946440322
57	0.28	-108.34749751647303	689.2280527743616	319.2389383588026				-190.16843902362	319.38191967733223	32.84571029707291
58	0.285	-108.38606076022093	689.0605330377995	319.17151005932146				-189.52103668693013	319.23191844928596	32.97953157592302
59	0.29	-108.42441415183498	688.8913029165878	319.1043287020808				-188.85324368813733	319.06443226323836	33.119063148646056
60	0.295	-108.4625055681634	688.720310663915	319.0374275144033				-188.16515638076794	318.8790027809014	33.26438723627094
61	0.3	-108.50028196673225	688.5475033484175	318.9708395557484				-187.4568968646822	318.6751914329385	33.415577973978316
62	0.305	-108.53768945131678	688.3728269807528	318.90459767377166				-186.72861262459267	318.45258061572576	33.572700959365775
63	0.31	-108.5746733398666	688.1962266427249	318.83873445939304				-185.98047610092283	318.2107748418481	33.73581280957893
64	0.315	-108.61117823467116	688.0176466186423	318.77328220097235				-185.21268419557475	317.94940184062034	33.90496072873113
